<?xml version="1.0" encoding="UTF-8"?>
<svg xmlns="http://www.w3.org/2000/svg" xmlns:xlink="http://www.w3.org/1999/xlink" width="768pt" height="767.999994pt" viewBox="0 0 768 767.999994" version="1.2">
<defs>
<clipPath id="clip1">
  <path d="M 230.398438 437 L 537.898438 437 L 537.898438 532.390625 L 230.398438 532.390625 Z M 230.398438 437 "/>
</clipPath>
</defs>
<g id="surface1">
<g clip-path="url(#clip1)" clip-rule="nonzero">
<path style=" stroke:none;fill-rule:nonzero;fill:rgb(100%,100%,100%);fill-opacity:1;" d="M 505.929688 452.675781 L 505.929688 500.421875 L 262.375 500.421875 L 262.375 452.902344 C 262.375 432.425781 230.597656 432.242188 230.597656 452.679688 L 230.597656 516.175781 C 230.597656 520.546875 232.101562 523.941406 234.378906 526.457031 C 236.90625 529.816406 240.863281 532.152344 246.371094 532.152344 L 521.699219 532.152344 C 526.082031 532.152344 529.480469 530.65625 532 528.378906 C 535.371094 525.859375 537.707031 521.90625 537.707031 516.402344 L 537.707031 452.902344 C 537.703125 432.421875 505.929688 432.242188 505.929688 452.675781 Z M 505.929688 452.675781 "/>
</g>
<path style=" stroke:none;fill-rule:nonzero;fill:rgb(100%,100%,100%);fill-opacity:1;" d="M 299.613281 359.160156 C 324.589844 384.089844 349.554688 409.019531 374.53125 433.949219 C 377.601562 437.015625 382.71875 436.933594 385.765625 433.890625 L 460.953125 358.8125 C 465.800781 353.972656 462.234375 345.308594 455.367188 345.308594 L 403.042969 345.308594 L 403.042969 266.203125 C 403.042969 235.480469 355.382812 235.214844 355.382812 265.859375 L 355.382812 345.308594 L 305.097656 345.308594 C 304.789062 345.3125 304.484375 345.339844 304.183594 345.386719 C 300.894531 345.671875 298.761719 347.640625 297.820312 350.128906 C 296.582031 352.601562 296.613281 355.613281 298.785156 358.222656 C 299.035156 358.554688 299.308594 358.867188 299.613281 359.160156 Z M 299.613281 359.160156 "/>
</g>
</svg>
